HIERARCHY
ROOT Hips
{
	OFFSET 55.310501 45.591206 43.872097
	CHANNELS 6 Xposition Yposition Zposition Zrotation Xrotation Yrotation
	JOINT Chest
	{
		OFFSET -0.153500 1.163101 7.852402
		CHANNELS 6 Xposition Yposition Zposition Zrotation Xrotation Yrotation
		JOINT Chest2
		{
			OFFSET 0.000000 0.000000 3.343300
			CHANNELS 6 Xposition Yposition Zposition Zrotation Xrotation Yrotation
			JOINT Neck
			{
				OFFSET 0.000000 0.000000 7.785500
				CHANNELS 6 Xposition Yposition Zposition Zrotation Xrotation Yrotation
				JOINT Head
				{
					OFFSET 0.000000 0.000000 2.173901
					CHANNELS 6 Xposition Yposition Zposition Zrotation Xrotation Yrotation
					End Site
					{
						OFFSET 0.000000 0.000000 10.528198
					}
				}
			}
			JOINT LeftCollar
			{
				OFFSET 2.676300 -1.652401 4.938301
				CHANNELS 6 Xposition Yposition Zposition Zrotation Xrotation Yrotation
				JOINT LeftShoulder
				{
					OFFSET 4.299000 0.000000 0.000000
					CHANNELS 6 Xposition Yposition Zposition Zrotation Xrotation Yrotation
					JOINT LeftElbow
					{
						OFFSET 0.000000 0.000000 -10.245102
						CHANNELS 6 Xposition Yposition Zposition Zrotation Xrotation Yrotation
						JOINT LeftWrist
						{
							OFFSET 0.000000 0.000000 -12.703300
							CHANNELS 6 Xposition Yposition Zposition Zrotation Xrotation Yrotation
							End Site
							{
								OFFSET 0.000000 0.000000 -2.173901
							}
						}
					}
				}
			}
			JOINT RightCollar
			{
				OFFSET -2.534599 -1.686401 5.195000
				CHANNELS 6 Xposition Yposition Zposition Zrotation Xrotation Yrotation
				JOINT RightShoulder
				{
					OFFSET -4.144100 0.000000 0.000000
					CHANNELS 6 Xposition Yposition Zposition Zrotation Xrotation Yrotation
					JOINT RightElbow
					{
						OFFSET 0.000000 0.000000 -10.116501
						CHANNELS 6 Xposition Yposition Zposition Zrotation Xrotation Yrotation
						JOINT RightWrist
						{
							OFFSET 0.000000 0.000000 -12.937801
							CHANNELS 6 Xposition Yposition Zposition Zrotation Xrotation Yrotation
							End Site
							{
								OFFSET 0.000000 0.000000 -2.173901
							}
						}
					}
				}
			}
		}
	}
	JOINT LeftHip
	{
		OFFSET 2.175598 0.064499 -2.662899
		CHANNELS 6 Xposition Yposition Zposition Zrotation Xrotation Yrotation
		JOINT LeftKnee
		{
			OFFSET 0.000000 -0.000004 -18.585800
			CHANNELS 6 Xposition Yposition Zposition Zrotation Xrotation Yrotation
			JOINT LeftAnkle
			{
				OFFSET 0.000000 0.000000 -18.979500
				CHANNELS 6 Xposition Yposition Zposition Zrotation Xrotation Yrotation
				End Site
				{
					OFFSET 0.000000 -9.264000 0.000000
				}
			}
		}
	}
	JOINT RightHip
	{
		OFFSET -2.092400 -0.058102 -2.581200
		CHANNELS 6 Xposition Yposition Zposition Zrotation Xrotation Yrotation
		JOINT RightKnee
		{
			OFFSET 0.000000 -0.000004 -18.665001
			CHANNELS 6 Xposition Yposition Zposition Zrotation Xrotation Yrotation
			JOINT RightAnkle
			{
				OFFSET 0.000000 0.000000 -18.566601
				CHANNELS 6 Xposition Yposition Zposition Zrotation Xrotation Yrotation
				End Site
				{
					OFFSET 0.000000 -8.497601 0.000000
				}
			}
		}
	}
}
MOTION
Frames: 6
Frame Time: 0.041667
33.266998 -0.225098 43.800400 2503.273292 -3.195961 30.479207 -0.153500 1.163109 7.852402 -34.105935 6.468899 6.290981 0.000003 0.000002 3.343309 8.204718 -5.171260 0.160778 -0.000008 0.000002 7.785492 36.811916 -11.556725 -41.047183 -0.000001 0.000003 2.173912 2.527634 -1.772970 3.346505 2.676288 -1.652404 4.938299 -9.157873 1.653373 8.918193 4.299004 0.000007 -0.000007 -432.477633 -3.443993 309.572778 0.000010 -0.000001 -10.245102 303.909814 706.248390 717.330564 -0.000010 0.000006 -12.703299 1066.317549 -356.827715 410.969614 -2.534600 -1.686398 5.194994 -9.784623 2.580150 11.481442 -4.144091 0.000002 -0.000002 233.195499 208.856024 -21.123227 0.000003 0.000000 -10.116508 -370.933067 -366.466041 -359.657954 0.000006 0.000004 -12.937819 -2115.817971 -15.604452 -32.688794 2.175596 0.064504 -2.662895 -906.453147 -2.617132 78.616263 -0.000005 -0.000010 -18.585810 672.758115 -126.897729 -114.002496 -0.000004 0.000010 -18.979500 473.307084 -8.833019 -633.370873 -2.092394 -0.058105 -2.581197 1795.579033 -6.972571 -28.221990 0.000006 -0.000002 -18.665001 -1614.969269 148.585178 -554.724305 0.000006 -0.000008 -18.566605 715.135669 16.688587 -326.391764
33.441399 -0.251499 43.799496 2503.091008 -3.356357 30.668458 -0.153499 1.163105 7.852405 -34.213719 6.674349 6.162845 -0.000003 0.000002 3.343304 8.239554 -5.215430 0.161083 -0.000008 0.000006 7.785500 36.859857 -11.585322 -41.244685 0.000004 0.000001 2.173903 2.578616 -1.786331 3.357389 2.676294 -1.652391 4.938297 -9.140714 1.631017 8.954697 4.299004 0.000007 -0.000011 -432.799964 -3.519333 309.380303 0.000000 0.000005 -10.245099 304.300692 706.109492 717.308106 0.000005 0.000006 -12.703300 1066.006967 -356.842250 410.942047 -2.534601 -1.686399 5.194995 -10.185579 2.318856 11.092900 -4.144110 -0.000002 -0.000002 234.452800 208.497303 -20.505148 0.000000 0.000000 -10.116490 -371.650701 -366.609202 -359.783111 -0.000006 0.000009 -12.937807 -2114.561434 -15.593605 -32.524101 2.175597 0.064500 -2.662893 -906.324575 -2.530196 78.443220 -0.000004 -0.000001 -18.585804 671.260774 -126.648537 -115.319220 -0.000006 0.000010 -18.979500 473.735473 -8.207740 -632.347437 -2.092396 -0.058104 -2.581203 1795.640996 -6.977853 -28.217677 0.000003 -0.000007 -18.665005 -1614.691144 148.476537 -554.789711 0.000005 -0.000010 -18.566607 715.069334 16.751679 -326.534952
33.624203 -0.279003 43.799892 2502.929488 -3.540002 30.814812 -0.153500 1.163102 7.852410 -34.336662 6.862796 6.133039 0.000000 0.000006 3.343306 8.301245 -5.261425 0.161267 0.000002 0.000002 7.785500 36.853966 -11.613329 -41.514576 0.000000 -0.000001 2.173911 2.611763 -1.773422 3.340936 2.676297 -1.652401 4.938299 -9.155996 1.648469 8.953927 4.299009 0.000003 -0.000011 -433.072516 -3.601473 309.155098 -0.000008 0.000010 -10.245109 304.654168 705.951578 717.288490 0.000005 0.000002 -12.703296 1065.764249 -356.856566 410.898416 -2.534598 -1.686402 5.195000 -10.211622 2.368501 10.993297 -4.144096 -0.000000 0.000006 235.060359 208.465092 -20.057769 0.000002 0.000000 -10.116496 -372.650176 -366.719195 -359.921326 0.000006 0.000002 -12.937799 -2113.220969 -15.591392 -32.394703 2.175604 0.064498 -2.662889 -906.227641 -2.480129 78.213377 -0.000011 -0.000010 -18.585798 668.972551 -125.999095 -117.376336 0.000007 0.000006 -18.979506 474.849832 -7.426056 -631.418969 -2.092396 -0.058106 -2.581194 1795.701430 -6.950865 -28.140453 -0.000003 -0.000010 -18.665009 -1614.639999 148.367118 -554.780421 0.000004 -0.000006 -18.566607 715.178234 16.878309 -326.622733
33.817799 -0.308994 43.800301 2502.772339 -3.767509 30.870669 -0.153502 1.163101 7.852404 -34.447940 7.000952 6.247791 0.000002 0.000007 3.343299 8.399131 -5.304036 0.161797 -0.000004 -0.000004 7.785501 36.798235 -11.636361 -41.863322 -0.000001 -0.000001 2.173904 2.579473 -1.758465 3.316701 2.676307 -1.652398 4.938302 -9.248296 1.716017 8.939633 4.299003 0.000003 -0.000003 -433.286109 -3.634385 308.891781 -0.000006 0.000007 -10.245102 305.005485 705.777053 717.254830 -0.000005 0.000000 -12.703300 1065.560874 -356.848479 410.828475 -2.534593 -1.686406 5.195002 -10.229147 2.468800 10.810187 -4.144110 0.000001 -0.000004 235.617484 208.408852 -19.627129 -0.000005 -0.000000 -10.116503 -373.500589 -366.840526 -360.036975 0.000002 -0.000001 -12.937811 -2112.061694 -15.578302 -32.322190 2.175596 0.064495 -2.662894 -906.140652 -2.486017 77.879197 -0.000010 -0.000006 -18.585796 665.824435 -125.060682 -120.238049 -0.000001 0.000010 -18.979502 476.330071 -6.609799 -630.723929 -2.092396 -0.058102 -2.581199 1795.773229 -6.878786 -27.938938 0.000002 -0.000006 -18.665005 -1614.643169 148.278557 -554.763756 0.000010 -0.000004 -18.566605 715.374288 17.049592 -326.738382
34.021797 -0.339100 43.800991 2502.617594 -3.962508 30.899878 -0.153497 1.163105 7.852410 -34.547172 7.087092 6.362518 0.000006 0.000003 3.343302 8.489034 -5.337806 0.162306 0.000004 -0.000006 7.785501 36.681169 -11.586803 -42.184334 0.000001 0.000006 2.173912 2.573033 -1.748303 3.302746 2.676299 -1.652399 4.938303 -9.365036 1.805941 8.961351 4.298996 0.000010 -0.000008 -433.475169 -3.630593 308.597809 0.000002 0.000008 -10.245110 305.344235 705.583895 717.223029 0.000000 0.000001 -12.703296 1065.364164 -356.814929 410.741513 -2.534589 -1.686405 5.195002 -10.212506 2.605063 10.603939 -4.144108 0.000002 0.000001 236.147999 208.352680 -19.170902 0.000000 0.000001 -10.116502 -374.280160 -366.962076 -360.168306 -0.000002 0.000007 -12.937803 -2110.958810 -15.560136 -32.316016 2.175599 0.064503 -2.662890 -906.105026 -2.490416 77.534238 -0.000010 0.000004 -18.585814 661.117943 -123.526867 -124.515715 0.000005 0.000010 -18.979507 478.750198 -5.736953 -630.392856 -2.092402 -0.058102 -2.581196 1795.827979 -6.829177 -27.681908 0.000004 -0.000005 -18.665009 -1614.604264 148.196923 -554.771679 0.000006 -0.000000 -18.566607 715.569468 17.187782 -326.855315
34.238998 -0.370899 43.802593 2502.440774 -4.161373 30.958925 -0.153509 1.163096 7.852409 -34.596838 7.211556 6.420097 -0.000001 0.000009 3.343304 8.559538 -5.355536 0.163316 -0.000010 0.000010 7.785501 36.569693 -11.539517 -42.454608 0.000005 0.000000 2.173902 2.544257 -1.714840 3.279162 2.676291 -1.652393 4.938305 -9.393731 1.828849 8.912063 4.299007 0.000004 -0.000007 -433.713952 -3.701032 308.365938 -0.000005 0.000001 -10.245103 305.656211 705.383524 717.190736 0.000001 0.000006 -12.703293 1065.154887 -356.794165 410.651846 -2.534602 -1.686397 5.194997 -10.234563 2.652882 10.450674 -4.144094 -0.000003 0.000003 236.577863 208.302451 -18.865544 0.000012 0.000003 -10.116493 -374.893374 -367.137612 -360.267835 0.000000 0.000008 -12.937802 -2110.096567 -15.539797 -32.279812 2.175596 0.064496 -2.662893 -906.062187 -2.491453 77.213267 -0.000004 -0.000004 -18.585812 654.228905 -121.577244 -130.750912 0.000004 0.000013 -18.979496 482.217311 -4.789410 -630.336903 -2.092402 -0.058107 -2.581197 1795.892347 -6.763520 -27.428911 0.000000 -0.000006 -18.665005 -1614.428537 148.159658 -554.833424 0.000001 -0.000006 -18.566605 715.714322 17.288143 -327.024977
